<?xml version="1.0" encoding="UTF-8" standalone="no"?>
<!DOCTYPE svg PUBLIC "-//W3C//DTD SVG 1.1//EN" "http://www.w3.org/Graphics/SVG/1.1/DTD/svg11.dtd">
<svg width="100%" height="100%" viewBox="0 0 800 800" version="1.1" xmlns="http://www.w3.org/2000/svg" xmlns:xlink="http://www.w3.org/1999/xlink" xml:space="preserve" xmlns:serif="http://www.serif.com/" style="fill-rule:evenodd;clip-rule:evenodd;stroke-linejoin:round;stroke-miterlimit:2;">
    <g transform="matrix(1,0,0,1,-9760,-297560)">
        <g id="Page-1">
            <g id="Dribbble-Light-Preview">
                <g id="icons">
                    <path id="whatsapp---128-" serif:id="whatsapp-[#128]" d="M10392.8,298125C10383.2,298152 10344.9,298175 10314.3,298181C10293.4,298186 10266.1,298189 10174.2,298151C10071,298108 9927.6,297956 9927.6,297855C9927.6,297803 9957.36,297743 10009.4,297743C10034.4,297743 10040,297743 10048.2,297763C10057.8,297786 10081.4,297844 10084.2,297850C10095.7,297874 10072.4,297888 10055.5,297909C10050.1,297915 10044,297922 10050.8,297934C10057.6,297945 10081.1,297984 10115.7,298015C10160.3,298054 10196.5,298067 10209.5,298072C10219.1,298076 10230.6,298075 10237.7,298068C10246.6,298058 10257.7,298042 10269,298027C10276.9,298015 10287,298014 10297.6,298018C10304.8,298020 10395.8,298063 10399.6,298069C10402.5,298074 10402.5,298098 10392.8,298125M10160.1,297560L10159.9,297560C9939.36,297560 9760,297739 9760,297960C9760,298047 9788.2,298129 9836.16,298194L9786.32,298343L9940.04,298294C10003.3,298336 10078.8,298360 10160.1,298360C10380.6,298360 10560,298181 10560,297960C10560,297739 10380.6,297560 10160.1,297560" style="fill:white;"/>
                </g>
            </g>
        </g>
    </g>
</svg>
